<?xml version="1.0" encoding="utf-8"?>
<!-- Generator: Adobe Illustrator 24.0.1, SVG Export Plug-In . SVG Version: 6.00 Build 0)  -->
<svg version="1.1" id="Bold" xmlns="http://www.w3.org/2000/svg" xmlns:xlink="http://www.w3.org/1999/xlink" x="0px" y="0px"
	 width="19px" height="12px" viewBox="0 0 19 12" style="enable-background:new 0 0 19 12;" xml:space="preserve">
<style type="text/css">
	.st0{fill:#FFFFFF;}
</style>
<path class="st0" d="M15.8,6.9c-0.3-0.4-0.2-0.6,0-1c0,0,2.5-3.8,2.8-5.1l0,0c0.1-0.5,0-0.8-0.6-0.8h-2.1c-0.5,0-0.8,0.3-0.9,0.6
	c0,0-1.1,2.7-2.6,4.5c-0.5,0.5-0.7,0.7-1,0.7c-0.1,0-0.3-0.2-0.3-0.6V0.8C11.1,0.3,11,0,10.5,0H7.3C6.9,0,6.7,0.3,6.7,0.5
	c0,0.5,0.7,0.7,0.8,2.2v3.3c0,0.7-0.1,0.8-0.4,0.8C6.5,6.8,4.7,4,3.7,0.9C3.5,0.2,3.3,0,2.8,0H0.7C0.1,0,0,0.3,0,0.6
	C0,1.2,0.7,4.1,3.3,8c1.7,2.6,4.1,4,6.3,4c1.3,0,1.5-0.3,1.5-0.9c0-2.5-0.1-2.7,0.5-2.7c0.3,0,0.8,0.2,2.1,1.4
	c1.4,1.5,1.6,2.2,2.4,2.2h2.1c0.6,0,0.9-0.3,0.7-0.9C18.6,9.8,15.9,7.1,15.8,6.9z"/>
</svg>
