<?xml version="1.0" encoding="utf-8"?>
<!-- Generator: Adobe Illustrator 24.0.1, SVG Export Plug-In . SVG Version: 6.00 Build 0)  -->
<svg version="1.1" id="Слой_1" xmlns="http://www.w3.org/2000/svg" xmlns:xlink="http://www.w3.org/1999/xlink" x="0px" y="0px"
	 width="20px" height="14px" viewBox="0 0 20 14" style="enable-background:new 0 0 20 14;" xml:space="preserve">
<style type="text/css">
	.st0{fill:#FFFFFF;}
</style>
<path class="st0" d="M20,7c0,0,0,3.2-0.4,4.8c-0.2,0.9-0.9,1.5-1.8,1.8C16.3,14,10,14,10,14s-6.2,0-7.8-0.4
	c-0.9-0.2-1.5-0.9-1.8-1.8C0,10.3,0,7,0,7s0-3.2,0.4-4.8c0.2-0.9,0.9-1.5,1.8-1.8C3.7,0,10,0,10,0s6.3,0,7.8,0.4
	c0.9,0.2,1.5,0.9,1.8,1.8C20,3.8,20,7,20,7z"/>
<path d="M8,10l5.2-3L8,4V10z"/>
</svg>
