<?xml version="1.0" encoding="utf-8"?>
<!-- Generator: Adobe Illustrator 24.0.1, SVG Export Plug-In . SVG Version: 6.00 Build 0)  -->
<svg version="1.1" id="Слой_1" xmlns="http://www.w3.org/2000/svg" xmlns:xlink="http://www.w3.org/1999/xlink" x="0px" y="0px"
	 width="6px" height="14.6px" viewBox="0 0 6 14.6" style="enable-background:new 0 0 6 14.6;" xml:space="preserve">
<style type="text/css">
	.st0{fill-rule:evenodd;clip-rule:evenodd;fill:#1E1C34;}
</style>
<path class="st0" d="M5.9,13.3L1.8,7.1C1.5,6.7,0.9,6.5,0.5,6.7C0.1,6.9-0.1,7.4,0.1,7.8c0,0,0,0.1,0.1,0.1l4.1,6.2
	c0.3,0.4,0.9,0.6,1.3,0.4c0.4-0.2,0.6-0.7,0.4-1.1C5.9,13.4,5.9,13.4,5.9,13.3z"/>
<path class="st0" d="M5.5,1.3L1.7,7.7C1.4,8.1,0.9,8.3,0.4,8.1C0,7.8-0.1,7.3,0.1,6.9c0,0,0,0,0,0L4,0.5C4.2,0,4.8-0.1,5.2,0.1
	C5.6,0.3,5.7,0.9,5.5,1.3C5.5,1.3,5.5,1.3,5.5,1.3z"/>
</svg>
