<?xml version="1.0" encoding="utf-8"?>
<!-- Generator: Adobe Illustrator 24.0.1, SVG Export Plug-In . SVG Version: 6.00 Build 0)  -->
<svg version="1.1" id="Слой_1" xmlns="http://www.w3.org/2000/svg" xmlns:xlink="http://www.w3.org/1999/xlink" x="0px" y="0px"
	 width="35.9px" height="35.8px" viewBox="0 0 35.9 35.8" style="enable-background:new 0 0 35.9 35.8;" xml:space="preserve">
<style type="text/css">
	.st0{fill:none;stroke:#271930;stroke-width:2.0627;stroke-linecap:round;stroke-linejoin:round;stroke-miterlimit:10;}
	.st1{fill:none;stroke:#271930;stroke-width:1.4525;stroke-linecap:round;stroke-linejoin:round;stroke-miterlimit:10;}
	.st2{fill:none;stroke:#271930;stroke-width:2;stroke-linecap:round;stroke-linejoin:round;stroke-miterlimit:10;}
</style>
<path class="st0" d="M23.5,3.1L23.5,3.1c-3.1-2.8-8.1-2.8-11.2,0l0,0c-2.5,2.2-3,5.6-1.4,8.3l7,11.7l7-11.7
	C26.5,8.7,26,5.3,23.5,3.1z"/>
<path class="st1" d="M19.5,10.4L19.5,10.4c-0.9,0.9-2.3,0.9-3.2,0l0,0c-0.9-0.9-0.9-2.3,0-3.2l0,0c0.9-0.9,2.3-0.9,3.2,0l0,0
	C20.4,8.1,20.4,9.5,19.5,10.4z"/>
<polyline class="st2" points="10,12.9 1,16.9 1,34.8 10.9,31.9 24.9,34.8 34.9,31.9 34.9,12.4 24.9,16.9 24.9,33.8 "/>
<line class="st2" x1="11" y1="16.1" x2="11" y2="31.1"/>
</svg>
