<?xml version="1.0" encoding="utf-8"?>
<!-- Generator: Adobe Illustrator 24.0.1, SVG Export Plug-In . SVG Version: 6.00 Build 0)  -->
<svg version="1.1" id="Слой_1" xmlns="http://www.w3.org/2000/svg" xmlns:xlink="http://www.w3.org/1999/xlink" x="0px" y="0px"
	 width="4px" height="6.8px" viewBox="0 0 4 6.8" style="enable-background:new 0 0 4 6.8;" xml:space="preserve">
<style type="text/css">
	.st0{fill:#2E2E2E;}
</style>
<g>
	<g>
		<path class="st0" d="M0.9,0.1l3,2.8c0.2,0.2,0.2,0.5,0,0.7c-0.2,0.2-0.5,0.2-0.7,0l0,0l-3-2.8c-0.2-0.2-0.2-0.5,0-0.7
			S0.7,0,0.9,0.1z"/>
	</g>
	<g>
		<path class="st0" d="M0.9,6.7l3-3c0.2-0.2,0.2-0.5,0-0.7C3.6,2.8,3.3,2.8,3.1,3l-3,3c-0.2,0.2-0.2,0.5,0,0.7S0.7,6.9,0.9,6.7
			C0.9,6.7,0.9,6.7,0.9,6.7z"/>
	</g>
</g>
</svg>
