<?xml version="1.0" encoding="utf-8"?>
<!-- Generator: Adobe Illustrator 24.0.1, SVG Export Plug-In . SVG Version: 6.00 Build 0)  -->
<svg version="1.1" id="Слой_1" xmlns="http://www.w3.org/2000/svg" xmlns:xlink="http://www.w3.org/1999/xlink" x="0px" y="0px"
	 width="38px" height="38px" viewBox="0 0 38 38" style="enable-background:new 0 0 38 38;" xml:space="preserve">
<style type="text/css">
	.st0{fill-rule:evenodd;clip-rule:evenodd;fill:#1E1C34;}
</style>
<path id="met.svg" class="st0" d="M37.4,38H23.3c-0.3,0-0.6-0.3-0.6-0.6c0,0,0,0,0,0V23.3c0-0.3,0.3-0.6,0.6-0.6c0,0,0,0,0,0h14.1
	c0.3,0,0.6,0.3,0.6,0.6v14.1C38,37.7,37.7,38,37.4,38z M36.8,23.9h-13v13h13L36.8,23.9L36.8,23.9z M25.5,32.7l2.1-2.1
	c0.2-0.2,0.3-0.3,0.5-0.5c0.1-0.1,0.2-0.3,0.3-0.5c0.1-0.2,0.2-0.3,0.2-0.5c0.1-0.2,0.1-0.3,0.1-0.5c0-0.1,0-0.3-0.1-0.4
	c-0.1-0.2-0.3-0.4-0.5-0.5c-0.1,0-0.3-0.1-0.4-0.1c-0.5,0-0.9,0.3-1.1,0.8c0,0.1-0.1,0.2-0.2,0.3c-0.1,0.1-0.2,0.1-0.3,0.1
	c-0.1,0-0.1,0-0.2,0l-0.6-0.1c0-0.3,0.1-0.6,0.3-0.9c0.1-0.2,0.3-0.4,0.5-0.6c0.2-0.2,0.4-0.3,0.7-0.4c0.3-0.1,0.6-0.1,0.8-0.1
	c0.3,0,0.6,0,0.9,0.1c0.2,0.1,0.5,0.2,0.7,0.4c0.2,0.2,0.3,0.4,0.4,0.6c0.1,0.3,0.2,0.5,0.2,0.8c0,0.2,0,0.5-0.1,0.7
	c-0.1,0.2-0.2,0.4-0.3,0.6c-0.1,0.2-0.3,0.4-0.4,0.6c-0.2,0.2-0.3,0.4-0.5,0.6l-1.5,1.6c0.1,0,0.3-0.1,0.4-0.1c0.1,0,0.3,0,0.4,0
	h1.7c0.1,0,0.2,0,0.3,0.1c0.1,0.1,0.1,0.2,0.1,0.3v0.7h-4.7v-0.4c0-0.1,0-0.2,0-0.2C25.4,32.9,25.4,32.8,25.5,32.7L25.5,32.7z
	 M34.8,26.8V31h0.9v0.7c0,0.1-0.1,0.2-0.2,0.2c0,0,0,0,0,0h-0.6v1.7h-1v-1.7h-2.9c-0.1,0-0.2,0-0.2-0.1c-0.1,0-0.1-0.1-0.1-0.2
	l-0.1-0.6l3.2-4.3L34.8,26.8L34.8,26.8z M33.8,31v-2.2c0-0.1,0-0.2,0-0.3c0-0.1,0-0.2,0-0.4L31.7,31H33.8z M32.7,18.6
	c0.3,0,0.6,0.3,0.6,0.6s-0.3,0.6-0.6,0.6h-1.8c-0.3,0-0.6-0.3-0.6-0.6s0.3-0.6,0.6-0.6H32.7z M5.6,19.7c-0.3,0-0.6-0.3-0.6-0.6
	s0.3-0.6,0.6-0.6h1.8c0.3,0,0.6,0.3,0.6,0.6s-0.3,0.6-0.6,0.6H5.6z M37.4,21.5h-0.8c0.1-0.8,0.2-1.6,0.2-2.4
	C36.9,9.3,29,1.3,19.2,1.2C9.3,1.1,1.3,9,1.2,18.9c-0.1,9.8,7.8,17.9,17.7,17.9c0.9,0,1.8-0.1,2.6-0.2v0.8c0,0.1,0,0.3,0.1,0.4
	C20.8,37.9,20,38,19.2,38C8.7,38.1,0.1,29.6,0,19.2C-0.1,8.7,8.4,0.1,18.8,0C29.3-0.1,37.9,8.4,38,18.8c0,0.9-0.1,1.8-0.2,2.7
	C37.7,21.5,37.6,21.5,37.4,21.5L37.4,21.5z M19.7,30.9v1.8c0,0.3-0.3,0.6-0.6,0.6c-0.3,0-0.6-0.3-0.6-0.6c0,0,0,0,0,0v-1.8
	c0-0.3,0.3-0.6,0.6-0.6C19.5,30.3,19.7,30.6,19.7,30.9C19.7,30.9,19.7,30.9,19.7,30.9L19.7,30.9z M19.2,22.1c-1.6,0-2.9-1.3-2.9-2.9
	c0-1.4,1-2.6,2.4-2.9V5.6c0-0.3,0.3-0.6,0.6-0.6c0.3,0,0.6,0.3,0.6,0.6c0,0,0,0,0,0v10.7c0.4,0.1,0.7,0.2,1,0.4l2.7-2.7
	c0.2-0.2,0.6-0.3,0.8,0c0.2,0.2,0.3,0.6,0,0.8c0,0,0,0,0,0l-2.7,2.7c0.9,1.4,0.5,3.2-0.8,4.1C20.3,21.9,19.7,22.1,19.2,22.1z
	 M19.2,17.4c-1,0-1.8,0.8-1.8,1.8c0,1,0.8,1.8,1.8,1.8c1,0,1.8-0.8,1.8-1.8C20.9,18.2,20.1,17.4,19.2,17.4L19.2,17.4z"/>
</svg>
