<?xml version="1.0" encoding="utf-8"?>
<!-- Generator: Adobe Illustrator 24.0.1, SVG Export Plug-In . SVG Version: 6.00 Build 0)  -->
<svg version="1.1" id="Слой_1" xmlns="http://www.w3.org/2000/svg" xmlns:xlink="http://www.w3.org/1999/xlink" x="0px" y="0px"
	 width="32px" height="32px" viewBox="0 0 32 32" style="enable-background:new 0 0 32 32;" xml:space="preserve">
<style type="text/css">
	.st0{fill-rule:evenodd;clip-rule:evenodd;fill:#561A36;}
	.st1{fill-rule:evenodd;clip-rule:evenodd;fill:#0C0B15;}
	.st2{fill-rule:evenodd;clip-rule:evenodd;fill:#FFD11A;}
</style>
<g>
	<rect class="st0" width="32" height="32"/>
	<path class="st1" d="M30.5,11.6l-0.8,5.9c0,0-0.8,5.7-0.4,2.9C29,23.2,29,23.2,29,23.2L27.9,32c0,0,0,0-5.3-0.1h-0.1h-0.1
		c-1.7-0.2-2.6-2-2.2-4.1c0.9-6.3,1.7-12.7,2.6-18.9c-1.2,0-2.4,0-3.6,0c-1.7,0-2.3,0.2-2.8,2.4c-0.8,4.7-1.1,9.5-2.7,13.8l-0.1,0.2
		l-0.1,0.1c-2,4.1-4.2,5.7-8,5.9H5.6h0.1c-0.9,0-1.9,0-2.8,0c-0.6,0.1-1.2-0.1-1.8-0.5c-2.4-2.1-1.2-8.2,2.1-7.4c0.3,0,0.6,0,0.9,0
		c0.6,0,1.3,0.1,1.9-0.2c1.1-0.4,1.4-2.5,1.6-3.8c0.4-2.8,0.8-5.8,1.2-8.6v-0.1v-0.1C10.2,3.3,14.5,0.1,20.1,0L32,0.1l-1.1,8.8
		C30.9,8.8,30.9,8.8,30.5,11.6L30.5,11.6z"/>
	<path class="st2" d="M25.8,29.9c-1,0-2,0-3.1,0c-0.6-0.1-0.9-0.5-0.7-1.5c1.1-7.4,1.9-14.1,2.9-21.6c-1.9,0-3.7,0-5.6,0
		c-2.2,0.1-3.7,0.6-4.3,4.1c-0.8,5.3-1.1,9.3-2.6,13.3c-1.5,3-2.9,4.7-6.7,4.9c-1,0-1.9,0-2.9,0c-1.7,0.5-1.6-4.3,0.3-3.6
		c2.5-0.2,5.3,1,6.1-5.8c0.4-2.8,0.8-5.8,1.2-8.6c1.1-6.5,4.9-9,9.6-9c2.8,0,5.6,0,8.4,0c1.2,0,1.6,0.4,1.3,2.1
		c-1,8.2-2.1,16.3-3.1,24.6C26.4,29.6,26.3,29.9,25.8,29.9L25.8,29.9z"/>
</g>
</svg>
