<?xml version="1.0" encoding="utf-8"?>
<!-- Generator: Adobe Illustrator 24.0.1, SVG Export Plug-In . SVG Version: 6.00 Build 0)  -->
<svg version="1.1" id="Слой_1" xmlns="http://www.w3.org/2000/svg" xmlns:xlink="http://www.w3.org/1999/xlink" x="0px" y="0px"
	 width="37.3px" height="37.3px" viewBox="0 0 37.3 37.3" style="enable-background:new 0 0 37.3 37.3;" xml:space="preserve">
<style type="text/css">
	.st0{fill:none;stroke:#1E1C34;stroke-width:1.0873;stroke-linecap:round;stroke-linejoin:round;stroke-miterlimit:10;}
	.st1{fill:none;stroke:#1E1C34;stroke-width:1.1043;stroke-linecap:round;stroke-linejoin:round;stroke-miterlimit:10;}
</style>
<path class="st0" d="M24.6,2.9L24.6,2.9c-3.3-3.1-8.7-3.1-12,0l0,0C10,5.3,9.4,9.1,11.1,12L18.6,25L26.1,12
	C27.8,9.1,27.3,5.3,24.6,2.9z"/>
<path class="st0" d="M20.3,10.9L20.3,10.9c-1,1-2.5,1-3.4,0l0,0c-1-1-1-2.5,0-3.5l0,0c1-1,2.5-1,3.4,0l0,0
	C21.3,8.4,21.3,9.9,20.3,10.9z"/>
<polyline class="st0" points="10.2,12.6 0.5,17 0.5,36.8 11.1,33.6 26.1,36.8 36.8,33.6 36.8,12 26.1,17 26.1,36.2 "/>
<line class="st1" x1="11.2" y1="16.1" x2="11.2" y2="33.2"/>
</svg>
