<?xml version="1.0" encoding="utf-8"?>
<!-- Generator: Adobe Illustrator 24.0.1, SVG Export Plug-In . SVG Version: 6.00 Build 0)  -->
<svg version="1.1" id="Слой_1" xmlns="http://www.w3.org/2000/svg" xmlns:xlink="http://www.w3.org/1999/xlink" x="0px" y="0px"
	 width="141px" height="52px" viewBox="0 0 141 52" style="enable-background:new 0 0 141 52;" xml:space="preserve">
<style type="text/css">
	.st0{fill-rule:evenodd;clip-rule:evenodd;fill:#0C0B15;}
	.st1{fill-rule:evenodd;clip-rule:evenodd;fill:#FFD11A;}
	.st2{fill:#FEFEFE;}
</style>
<g>
	<path class="st0" d="M48.4,13.8h14.8c2.4,0,4.1,2.1,3.7,4.4l-0.5,2.6c-0.3,2-2.1,3.5-4.2,3.5h-15c-0.2,0-0.4,0-0.6,0
		c-0.2,1.1-0.4,2.3-0.6,3.4h23.6c2.4,0,4.1,2.1,3.7,4.4l-0.5,2.6c-0.3,2-2.1,3.5-4.2,3.5c-11,0-21.8,0-32.6,0h-0.1l-0.1,0
		c-2.7-0.2-4-2.4-3.4-4.9c1.4-7.6,2.6-15.2,4-22.7c-1.9,0-3.8,0-5.6,0c-2.6,0-3.6,0.2-4.3,2.9c-1.2,5.6-1.7,11.4-4.2,16.6l-0.1,0.2
		l-0.1,0.1c-3.2,4.9-6.5,6.8-12.5,7.1l-0.1,0H9.7c-1.4,0-2.9,0-4.3,0c-1,0.1-1.9-0.1-2.8-0.6c-3.7-2.5-1.8-9.8,3.3-8.9
		c0.5,0,0.9,0,1.4,0c0.9,0,2.1,0.1,3-0.2c1.7-0.5,2.2-3,2.5-4.5c0.6-3.4,1.2-6.9,1.8-10.3l0-0.1l0-0.1c2-8.9,8.7-12.8,17.5-12.9
		c29.9-0.1,61.9,0,90,0C132.6,0,141,8.5,141,18.9s-8.4,18.8-18.8,18.8s-18.8-8.4-18.8-18.8c0-3,0.7-5.8,1.9-8.3H99l-4.3,24.3
		c-0.3,2-2.2,3.5-4.2,3.5l-4.6,0c-2.4,0-4.1-2.1-3.7-4.4l4.1-23.4c-12.2,0-24.1,0-36.4,0c-0.3,0-0.6,0-0.9-0.1
		C48.8,11.6,48.6,12.7,48.4,13.8L48.4,13.8z"/>
	<path class="st1" d="M109.3,2.6H78.6c-0.8,0-1.5,0.6-1.6,1.4l-0.5,2.6C76.5,7.4,77,8,77.7,8h11.7l-4.6,26.4
		c-0.1,0.7,0.4,1.3,1.2,1.4l4.6,0c0.8,0,1.5-0.6,1.6-1.3L96.8,8h11.6c0.8,0,1.5-0.6,1.6-1.4l0.5-2.6C110.6,3.2,110.1,2.6,109.3,2.6
		L109.3,2.6z M122.2,2.6c9,0,16.2,7.3,16.2,16.2s-7.3,16.2-16.2,16.2c-9,0-16.2-7.3-16.2-16.2S113.2,2.6,122.2,2.6L122.2,2.6z
		 M69.7,30.4H45.9c-0.8,0-1.5,0.6-1.6,1.4l-0.5,2.6c-0.1,0.8,0.4,1.4,1.1,1.4h23.8c0.8,0,1.5-0.6,1.6-1.4l0.5-2.6
		C71,31,70.5,30.4,69.7,30.4L69.7,30.4z M41,35.7c-1.6,0-3.2,0-4.8,0c-1-0.1-1.4-0.6-1.1-1.8C36.8,25,38.1,17,39.7,8
		c-2.9,0-5.8,0-8.7,0c-3.5,0.1-5.8,0.7-6.8,4.9c-1.3,6.4-1.7,11.2-4,16c-2.4,3.6-4.6,5.6-10.5,5.9c-1.5,0-3,0-4.5,0
		c-2.7,0.6-2.5-5.1,0.5-4.3c3.9-0.2,8.3,1.2,9.6-6.9c0.6-3.4,1.2-6.9,1.8-10.3c1.7-7.8,7.6-10.8,15-10.8c4.4,0,8.8,0,13.2,0
		C47.1,2.5,47.8,3,47.3,5c-1.6,9.8-3.3,19.6-4.9,29.5C42,35.4,41.8,35.8,41,35.7L41,35.7z M74.6,2.6H50.8c-0.8,0-1.5,0.6-1.6,1.4
		l-0.5,2.6C48.6,7.4,49.1,8,49.9,8h23.8c0.8,0,1.5-0.6,1.6-1.4L75.8,4C75.9,3.2,75.4,2.6,74.6,2.6L74.6,2.6z M63.2,16.4h-15
		c-0.8,0-1.5,0.6-1.6,1.4l-0.5,2.6c-0.1,0.8,0.4,1.4,1.1,1.4h15c0.8,0,1.5-0.6,1.6-1.4l0.5-2.6C64.5,17,63.9,16.4,63.2,16.4
		L63.2,16.4z"/>
	<path class="st2" d="M5.5,48.8L7,49.3c-0.2,0.9-0.6,1.5-1.2,2c-0.6,0.4-1.3,0.6-2.1,0.6c-1.1,0-2-0.4-2.6-1.1c-0.7-0.7-1-1.7-1-3
		c0-1.3,0.3-2.4,1-3.1c0.7-0.7,1.6-1.1,2.7-1.1c1,0,1.8,0.3,2.4,0.9C6.6,44.8,6.8,45.3,7,46l-1.6,0.4c-0.1-0.4-0.3-0.7-0.6-1
		C4.5,45.1,4.1,45,3.7,45c-0.6,0-1.1,0.2-1.5,0.6c-0.4,0.4-0.6,1.1-0.6,2.1c0,1,0.2,1.7,0.6,2.2c0.4,0.4,0.8,0.6,1.4,0.6
		c0.4,0,0.8-0.1,1.1-0.4C5.1,49.9,5.3,49.4,5.5,48.8L5.5,48.8z"/>
	<polygon class="st2" points="9.1,51.8 9.1,43.7 15,43.7 15,45.1 10.7,45.1 10.7,46.9 14.7,46.9 14.7,48.3 10.7,48.3 10.7,50.4 
		15.2,50.4 15.2,51.8 9.1,51.8 	"/>
	<polygon class="st2" points="19,51.8 19,45.1 16.6,45.1 16.6,43.7 23,43.7 23,45.1 20.7,45.1 20.7,51.8 19,51.8 	"/>
	<path class="st2" d="M24.8,43.7h1.6V47h2.2c1,0,1.8,0.2,2.2,0.7c0.5,0.5,0.7,1.1,0.7,1.7c0,0.6-0.1,1-0.4,1.4
		c-0.3,0.4-0.6,0.6-1,0.8c-0.4,0.1-0.9,0.2-1.5,0.2h-3.8V43.7L24.8,43.7z M26.4,50.4H28c0.5,0,0.9,0,1.1-0.1c0.2,0,0.4-0.2,0.5-0.3
		c0.2-0.2,0.2-0.4,0.2-0.6c0-0.4-0.1-0.6-0.4-0.8c-0.3-0.2-0.7-0.3-1.4-0.3h-1.7V50.4L26.4,50.4z"/>
	<path class="st2" d="M41.4,50.9v0.9h-1.6v-0.9c-1.3,0-2.2-0.4-2.7-1c-0.5-0.6-0.8-1.3-0.8-2.2c0-0.9,0.3-1.7,0.8-2.2
		c0.6-0.6,1.5-0.9,2.7-0.9v-0.8h1.6v0.8c1.3,0,2.2,0.4,2.7,0.9c0.5,0.6,0.8,1.3,0.8,2.2c0,0.9-0.3,1.6-0.8,2.2
		C43.6,50.5,42.7,50.8,41.4,50.9L41.4,50.9z M41.4,49.5c0.4,0,0.8-0.1,1.1-0.2c0.3-0.1,0.5-0.3,0.7-0.6c0.1-0.2,0.2-0.6,0.2-1.1
		c0-1.2-0.6-1.7-1.9-1.7V49.5L41.4,49.5z M39.8,49.5v-3.6c-0.7,0-1.2,0.2-1.5,0.5c-0.3,0.3-0.5,0.8-0.5,1.4
		C37.8,48.9,38.5,49.5,39.8,49.5L39.8,49.5z"/>
	<polygon class="st2" points="46.9,43.7 48.4,43.7 48.4,49.1 51.7,43.7 53.3,43.7 53.3,51.8 51.8,51.8 51.8,46.5 48.5,51.8 
		46.9,51.8 46.9,43.7 	"/>
	<polygon class="st2" points="57.4,51.8 57.4,45.1 55,45.1 55,43.7 61.4,43.7 61.4,45.1 59,45.1 59,51.8 57.4,51.8 	"/>
	<polygon class="st2" points="63.1,51.8 63.1,43.7 64.7,43.7 64.7,46.9 67.9,46.9 67.9,43.7 69.6,43.7 69.6,51.8 67.9,51.8 
		67.9,48.3 64.7,48.3 64.7,51.8 63.1,51.8 	"/>
	<polygon class="st2" points="71.9,51.8 71.9,43.7 77.9,43.7 77.9,45.1 73.5,45.1 73.5,46.9 77.5,46.9 77.5,48.3 73.5,48.3 
		73.5,50.4 78,50.4 78,51.8 71.9,51.8 	"/>
	<path class="st2" d="M85.2,48.8l1.6,0.5c-0.2,0.9-0.6,1.5-1.2,2c-0.6,0.4-1.3,0.6-2.1,0.6c-1.1,0-2-0.4-2.6-1.1c-0.7-0.7-1-1.7-1-3
		c0-1.3,0.3-2.4,1-3.1c0.7-0.7,1.6-1.1,2.7-1.1c1,0,1.8,0.3,2.4,0.9c0.4,0.3,0.6,0.8,0.8,1.5l-1.6,0.4c-0.1-0.4-0.3-0.7-0.6-1
		c-0.3-0.2-0.7-0.4-1.1-0.4c-0.6,0-1.1,0.2-1.5,0.6c-0.4,0.4-0.6,1.1-0.6,2.1c0,1,0.2,1.7,0.6,2.2c0.4,0.4,0.8,0.6,1.4,0.6
		c0.4,0,0.8-0.1,1.1-0.4C84.8,49.9,85.1,49.4,85.2,48.8L85.2,48.8z"/>
	<path class="st2" d="M92,43.7h1.6v3.4c0.4,0,0.6-0.1,0.7-0.3c0.1-0.2,0.3-0.6,0.6-1.3c0.3-0.9,0.7-1.4,1-1.6
		c0.3-0.2,0.9-0.3,1.6-0.3c0,0,0.1,0,0.2,0v1.2l-0.2,0c-0.3,0-0.6,0-0.7,0.1c-0.2,0.1-0.3,0.2-0.4,0.4c-0.1,0.2-0.2,0.5-0.4,1
		c-0.1,0.3-0.2,0.5-0.3,0.7c-0.1,0.2-0.3,0.4-0.6,0.5c0.4,0.1,0.7,0.3,0.9,0.6c0.2,0.3,0.5,0.8,0.8,1.3l1.1,2.2H96l-1-2.1
		c0,0,0-0.1-0.1-0.2c0,0-0.1-0.2-0.2-0.4c-0.2-0.4-0.4-0.6-0.5-0.7c-0.1-0.1-0.3-0.2-0.6-0.2v3.5H92V43.7L92,43.7z"/>
	<path class="st2" d="M100,43.7h5.7v8.1H104v-6.7h-2.4v3.4c0,1,0,1.7-0.1,2.1c-0.1,0.4-0.2,0.7-0.5,0.9c-0.3,0.2-0.7,0.3-1.2,0.3
		c-0.2,0-0.5,0-1-0.1v-1.3l0.4,0c0.3,0,0.6,0,0.7-0.1c0.1-0.1,0.2-0.3,0.2-0.7l0-1.4V43.7L100,43.7z"/>
	<path class="st2" d="M107.2,43.7h1.8l1.9,4.2l1.6-4.2h1.7l-2.7,6.1c-0.3,0.7-0.6,1.2-0.9,1.5c-0.3,0.3-0.7,0.5-1.2,0.5
		c-0.5,0-0.9,0-1.1-0.1v-1.2c0.2,0,0.4,0,0.6,0c0.4,0,0.6-0.1,0.8-0.2c0.2-0.1,0.3-0.4,0.5-0.9L107.2,43.7L107.2,43.7z"/>
	<path class="st2" d="M115.7,43.7h6v1.4h-4.4V47h2.2c0.6,0,1.1,0.1,1.5,0.2c0.4,0.1,0.7,0.4,1,0.8c0.3,0.4,0.4,0.9,0.4,1.4
		c0,0.5-0.1,1-0.4,1.4c-0.3,0.4-0.6,0.7-1,0.8c-0.4,0.1-0.9,0.2-1.5,0.2h-3.8V43.7L115.7,43.7z M117.3,50.4h1.6c0.5,0,0.9,0,1.1-0.1
		c0.2,0,0.4-0.2,0.5-0.3c0.2-0.2,0.2-0.4,0.2-0.6c0-0.4-0.1-0.6-0.4-0.8c-0.3-0.2-0.7-0.3-1.4-0.3h-1.7V50.4L117.3,50.4z"/>
	<path class="st2" d="M124,47.8c0-0.8,0.1-1.5,0.4-2.1c0.2-0.4,0.4-0.8,0.8-1.1c0.3-0.3,0.7-0.6,1-0.7c0.5-0.2,1.1-0.3,1.7-0.3
		c1.2,0,2.1,0.4,2.9,1.1c0.7,0.7,1.1,1.8,1.1,3.1c0,1.3-0.4,2.3-1.1,3.1c-0.7,0.7-1.7,1.1-2.8,1.1c-1.2,0-2.2-0.4-2.9-1.1
		C124.4,50.1,124,49.1,124,47.8L124,47.8z M125.7,47.8c0,0.9,0.2,1.6,0.6,2.1c0.4,0.5,1,0.7,1.6,0.7c0.7,0,1.2-0.2,1.6-0.7
		c0.4-0.5,0.6-1.2,0.6-2.1c0-0.9-0.2-1.6-0.6-2.1c-0.4-0.5-0.9-0.7-1.6-0.7c-0.7,0-1.2,0.2-1.6,0.7
		C125.9,46.1,125.7,46.8,125.7,47.8L125.7,47.8z"/>
	<path class="st2" d="M133.8,43.7h3.2c0.6,0,1.1,0,1.4,0.1c0.3,0.1,0.6,0.2,0.8,0.3c0.2,0.2,0.5,0.4,0.6,0.7
		c0.2,0.3,0.2,0.6,0.2,0.9c0,0.4-0.1,0.7-0.3,1c-0.2,0.3-0.5,0.6-0.8,0.7c0.5,0.1,0.9,0.4,1.1,0.7c0.3,0.3,0.4,0.8,0.4,1.2
		c0,0.4-0.1,0.7-0.3,1.1c-0.2,0.3-0.4,0.6-0.7,0.8c-0.3,0.2-0.7,0.3-1.1,0.4c-0.3,0-0.9,0-2,0.1h-2.7V43.7L133.8,43.7z M135.4,45.1
		v1.9h1.1c0.6,0,1,0,1.2,0c0.3,0,0.5-0.1,0.7-0.3c0.2-0.2,0.2-0.4,0.2-0.6c0-0.2-0.1-0.5-0.2-0.6c-0.1-0.2-0.3-0.2-0.6-0.3
		c-0.2,0-0.6,0-1.4,0H135.4L135.4,45.1z M135.4,48.3v2.2h1.5c0.6,0,1,0,1.1,0c0.2,0,0.4-0.2,0.6-0.3c0.2-0.2,0.2-0.4,0.2-0.7
		c0-0.2-0.1-0.4-0.2-0.6c-0.1-0.2-0.3-0.3-0.5-0.4c-0.2-0.1-0.7-0.1-1.4-0.1H135.4L135.4,48.3z"/>
</g>
</svg>
