<?xml version="1.0" encoding="UTF-8"?>
<!-- Generator: Adobe Illustrator 22.1.0, SVG Export Plug-In . SVG Version: 6.00 Build 0)  -->
<svg version="1.1" id="Layer_1" xmlns="http://www.w3.org/2000/svg" xmlns:xlink="http://www.w3.org/1999/xlink" x="0px" y="0px" viewBox="0 0 503.7 475.2" style="enable-background:new 0 0 503.7 475.2;" xml:space="preserve">
<style type="text/css">
	.st0{fill:#06A39F;}
</style>
<path class="st0" d="M9.5,475.2c-2.4,0-4.7-0.9-6.4-2.7c-1.7-1.7-2.7-4-2.7-6.4L0,182c0-0.1,0-0.4,0-0.4c0-2.9,1.5-5.7,3.9-7.4  l75.4-52.1V66.2c0-5,4.1-9.1,9.1-9.1h85.2l73.2-50.6c1.5-1.1,3.3-1.6,5.2-1.6s3.7,0.6,5.2,1.6L330,57h85.6c5,0,9.1,4.1,9.1,9.1v56.7  l75,52.1c1.7,1.2,3,3,3.6,5.1l0.1,0.3l0.1,0.3c0,0.1,0.1,0.7,0.1,1l0.4,283.8c0,5-4.1,9.1-9.1,9.1L9.5,475.2L9.5,475.2z M36.2,456.9  l431.3-0.6l-215.3-167L36.2,456.9z M18.6,447.5l169.1-131.2L18.2,199.2L18.6,447.5z M316.4,316.1l169.4,131.4l-0.3-248.9  L316.4,316.1z M97.5,231.9l105.3,72.8l43.8-34c1.6-1.2,3.5-1.9,5.6-1.9c2,0,3.9,0.6,5.5,1.8l0.1,0.1l0.1,0.1l43.4,33.7l105.2-73.1  v-156h-309V231.9z M25.1,181.8l54.2,37.4v-74.9L25.1,181.8z M424.7,218.6l52.9-36.8L424.7,145V218.6z M205.7,57h92.4L252,25  L205.7,57z"/>
<path class="st0" d="M163.2,153.9c-5,0-9.1-4.1-9.1-9.1s4.1-9.1,9.1-9.1h177.5c5,0,9.1,4.1,9.1,9.1s-4.1,9.1-9.1,9.1H163.2z"/>
<path class="st0" d="M163.2,222.1c-5,0-9.1-4.1-9.1-9.1s4.1-9.1,9.1-9.1h177.5c5,0,9.1,4.1,9.1,9.1s-4.1,9.1-9.1,9.1H163.2z"/>
</svg>