<?xml version="1.0" encoding="utf-8"?>
<!-- Generator: Adobe Illustrator 24.0.1, SVG Export Plug-In . SVG Version: 6.00 Build 0)  -->
<svg version="1.1" id="Слой_1" xmlns="http://www.w3.org/2000/svg" xmlns:xlink="http://www.w3.org/1999/xlink" x="0px" y="0px"
	 width="32px" height="32px" viewBox="0 0 32 32" style="enable-background:new 0 0 32 32;" xml:space="preserve">
<style type="text/css">
	.st0{fill:#FFFFFF;}
</style>
<path class="st0" d="M10.4,13.2c1,0.2,1.9,0.8,2.4,1.6c0.5,0.8,0.6,1.4,0.6,2.8c0,1.1,0,1.2-0.3,1.8c-0.5,1-1.2,1.7-2.3,2
	c-0.4,0.1-0.8,0.2-3.1,0.2c-2.8,0-3.2,0-4,0.5c-0.6,0.3-1.3,1.1-1.6,1.7c-0.3,0.7-0.4,1.3-0.4,2c0,1.8,0.8,3.1,2.2,3.9l0.7,0.4
	l8.1,0l8.1,0l0.5,0.9l0.5,0.9l-8.5,0c-7.4,0-8.5,0-9-0.1c-1.6-0.4-3-1.6-3.8-3.2C0.1,27.7,0,27.1,0,25.8c0-1,0-1.3,0.2-1.8
	c0.3-1.1,0.7-1.8,1.5-2.5c0.6-0.6,0.8-0.8,1.5-1.1c1.2-0.6,1.6-0.7,4.6-0.7h2.6l0.4-0.2c0.2-0.1,0.5-0.4,0.7-0.6
	c0.2-0.4,0.2-0.4,0.3-1.5c0-1,0-1.1-0.1-1.5c-0.1-0.2-0.3-0.5-0.4-0.6c-0.5-0.5-0.6-0.5-2.3-0.5l-1.6,0l0.4-0.8
	c0.2-0.4,0.5-0.8,0.5-0.9C8.2,13.1,9.6,13.1,10.4,13.2z"/>
<path class="st0" d="M6.2,0.1c1.1,0.3,2.3,1.2,2.9,2.1c0.4,0.6,0.7,1.6,0.8,2.3c0.1,1.2-0.5,3.1-2,6.1c-1.2,2.4-2.1,4-2.3,4.1
	c-0.4,0.2-0.7,0.1-1-0.1c-0.5-0.5-2.8-5-3.5-7C0.4,6.3,0.3,5.6,0.3,4.8c0-2.1,1.6-4.1,3.6-4.6C4.5,0,5.6,0,6.2,0.1z M4,1.9
	C2.9,2.4,2.2,3.3,2,4.4c-0.2,1,0.2,2.2,1.6,5.2c1.1,2.3,1.3,2.7,1.5,2.5C5.2,12,5.7,11,6.2,9.9c1-2.1,1.6-3.5,1.8-4.3
	c0.3-1.3-0.3-2.7-1.6-3.4C6,1.9,6,1.8,5.1,1.8C4.6,1.8,4.3,1.8,4,1.9z"/>
<path class="st0" d="M5.4,3.4C6.2,3.7,6.6,4.8,6,5.5C5.6,6.1,4.7,6.1,4.2,5.6C3.5,4.9,3.7,3.8,4.6,3.4C5,3.3,5.3,3.4,5.4,3.4z"/>
<path class="st0" d="M26,6.6c0.4,0.1,1,0.4,1.5,0.6c2.6,1.3,4.2,3.8,4.5,6.8c0.1,1.8-0.8,4.8-3.1,9.7c-1.6,3.3-3.9,7.7-4.3,8
	c-0.3,0.3-0.8,0.3-1.1,0c-0.4-0.4-2.7-4.7-4.3-8c-2.5-5.3-3.4-8.1-3.1-10.3c0.5-3.6,3-6.3,6.4-7C23.3,6.3,25.2,6.4,26,6.6z
	 M22.5,8.4c-2.8,0.8-4.7,3.3-4.7,6.2c0,1.1,0.6,3,1.7,5.6c1,2.3,4.4,9.1,4.6,9.1c0.2,0,3.3-6.1,4.4-8.6c1.6-3.7,2.1-5.5,1.8-7.1
	c-0.2-1.3-0.8-2.4-1.7-3.4c-0.8-0.8-1.5-1.3-2.5-1.6C25.1,8.1,23.4,8.1,22.5,8.4z"/>
<path class="st0" d="M25.3,10.8c0.8,0.3,1.5,0.8,1.9,1.5c1.3,2.1,0.5,4.9-1.6,5.9c-2.1,1-4.5-0.2-5.3-2.5c-0.1-0.5-0.2-0.7-0.1-1.4
	c0-0.7,0.1-0.9,0.3-1.4c0.3-0.8,0.7-1.2,1.3-1.6c0.4-0.3,1.1-0.6,1.7-0.8C23.9,10.5,24.8,10.7,25.3,10.8z M23.5,12.4
	c-1,0.3-1.6,1.2-1.6,2.2c0,0.9,0.4,1.6,1.2,2c0.5,0.2,0.6,0.3,1,0.2c0.6-0.1,1.1-0.3,1.5-0.7c0.4-0.5,0.6-0.9,0.6-1.5
	c0-0.9-0.5-1.6-1.2-2C24.6,12.4,23.8,12.3,23.5,12.4z"/>
</svg>
